<?xml version="1.0" encoding="UTF-8"?>
<svg width="50px" height="50px" viewBox="0 0 50 50" version="1.1" xmlns="http://www.w3.org/2000/svg" xmlns:xlink="http://www.w3.org/1999/xlink">
    <defs>
        <linearGradient x1="16.6340675%" y1="60.7158612%" x2="159.526257%" y2="26.1943227%" id="linearGradient-1">
            <stop stop-color="#F69923" offset="0%"/>
            <stop stop-color="#F79A23" offset="31.23%"/>
            <stop stop-color="#E97826" offset="83.829999%"/>
        </linearGradient>
        <linearGradient x1="-53.8576864%" y1="394.970831%" x2="59.7017471%" y2="13.7454494%" id="linearGradient-2">
            <stop stop-color="#9E2064" offset="32.33%"/>
            <stop stop-color="#C92037" offset="63.020003%"/>
            <stop stop-color="#CD2335" offset="75.139999%"/>
            <stop stop-color="#E97826" offset="100%"/>
        </linearGradient>
        <linearGradient x1="-20.6186724%" y1="173.231431%" x2="125.360894%" y2="-111.307757%" id="linearGradient-3">
            <stop stop-color="#282662" offset="0%"/>
            <stop stop-color="#662E8D" offset="9.54839%"/>
            <stop stop-color="#9F2064" offset="78.820002%"/>
            <stop stop-color="#CD2032" offset="94.870001%"/>
        </linearGradient>
        <linearGradient x1="23.2155294%" y1="170.497289%" x2="69.9065562%" y2="-44.4029666%" id="linearGradient-4">
            <stop stop-color="#9E2064" offset="32.33%"/>
            <stop stop-color="#C92037" offset="63.020003%"/>
            <stop stop-color="#CD2335" offset="75.139999%"/>
            <stop stop-color="#E97826" offset="100%"/>
        </linearGradient>
        <linearGradient x1="43.3928854%" y1="77.304969%" x2="61.116248%" y2="-41.4214613%" id="linearGradient-5">
            <stop stop-color="#282662" offset="0%"/>
            <stop stop-color="#662E8D" offset="9.54839%"/>
            <stop stop-color="#9F2064" offset="78.820002%"/>
            <stop stop-color="#CD2032" offset="94.870001%"/>
        </linearGradient>
        <linearGradient x1="-2.0333885%" y1="187.679939%" x2="87.3879405%" y2="-51.0282024%" id="linearGradient-6">
            <stop stop-color="#9E2064" offset="32.33%"/>
            <stop stop-color="#C92037" offset="63.020003%"/>
            <stop stop-color="#CD2335" offset="75.139999%"/>
            <stop stop-color="#E97826" offset="100%"/>
        </linearGradient>
        <linearGradient x1="-129.864381%" y1="399.65607%" x2="66.5775346%" y2="22.313122%" id="linearGradient-7">
            <stop stop-color="#9E2064" offset="32.33%"/>
            <stop stop-color="#C92037" offset="63.020003%"/>
            <stop stop-color="#CD2335" offset="75.139999%"/>
            <stop stop-color="#E97826" offset="100%"/>
        </linearGradient>
        <linearGradient x1="-4514.6935%" y1="30412.6556%" x2="2842.37853%" y2="-18498.6425%" id="linearGradient-8">
            <stop stop-color="#9E2064" offset="32.33%"/>
            <stop stop-color="#C92037" offset="63.020003%"/>
            <stop stop-color="#CD2335" offset="75.139999%"/>
            <stop stop-color="#E97826" offset="100%"/>
        </linearGradient>
        <linearGradient x1="-15277.8157%" y1="32952.3295%" x2="7529.10757%" y2="-15958.9686%" id="linearGradient-9">
            <stop stop-color="#9E2064" offset="32.33%"/>
            <stop stop-color="#C92037" offset="63.020003%"/>
            <stop stop-color="#CD2335" offset="75.139999%"/>
            <stop stop-color="#E97826" offset="100%"/>
        </linearGradient>
        <linearGradient x1="57.5595044%" y1="67.6941843%" x2="72.3861893%" y2="59.9788086%" id="linearGradient-10">
            <stop stop-color="#9E2064" offset="32.33%"/>
            <stop stop-color="#C92037" offset="63.020003%"/>
            <stop stop-color="#CD2335" offset="75.139999%"/>
            <stop stop-color="#E97826" offset="100%"/>
        </linearGradient>
        <linearGradient x1="16.6340675%" y1="60.5452689%" x2="159.526257%" y2="26.5732997%" id="linearGradient-11">
            <stop stop-color="#F69923" offset="0%"/>
            <stop stop-color="#F79A23" offset="31.23%"/>
            <stop stop-color="#E97826" offset="83.829999%"/>
        </linearGradient>
        <linearGradient x1="-55.3070178%" y1="394.970831%" x2="59.8371348%" y2="13.7454494%" id="linearGradient-12">
            <stop stop-color="#9E2064" offset="32.33%"/>
            <stop stop-color="#C92037" offset="63.020003%"/>
            <stop stop-color="#CD2335" offset="75.139999%"/>
            <stop stop-color="#E97826" offset="100%"/>
        </linearGradient>
        <linearGradient x1="-20.6186724%" y1="171.368698%" x2="125.360894%" y2="-108.869473%" id="linearGradient-13">
            <stop stop-color="#282662" offset="0%"/>
            <stop stop-color="#662E8D" offset="9.54839%"/>
            <stop stop-color="#9F2064" offset="78.820002%"/>
            <stop stop-color="#CD2032" offset="94.870001%"/>
        </linearGradient>
        <linearGradient x1="22.8915692%" y1="170.497289%" x2="70.1473275%" y2="-44.4029666%" id="linearGradient-14">
            <stop stop-color="#9E2064" offset="32.33%"/>
            <stop stop-color="#C92037" offset="63.020003%"/>
            <stop stop-color="#CD2335" offset="75.139999%"/>
            <stop stop-color="#E97826" offset="100%"/>
        </linearGradient>
        <linearGradient x1="43.3332086%" y1="77.304969%" x2="61.2166522%" y2="-41.4214613%" id="linearGradient-15">
            <stop stop-color="#282662" offset="0%"/>
            <stop stop-color="#662E8D" offset="9.54839%"/>
            <stop stop-color="#9F2064" offset="78.820002%"/>
            <stop stop-color="#CD2032" offset="94.870001%"/>
        </linearGradient>
        <linearGradient x1="-2.74877421%" y1="187.679939%" x2="87.9019719%" y2="-51.0282024%" id="linearGradient-16">
            <stop stop-color="#9E2064" offset="32.33%"/>
            <stop stop-color="#C92037" offset="63.020003%"/>
            <stop stop-color="#CD2335" offset="75.139999%"/>
            <stop stop-color="#E97826" offset="100%"/>
        </linearGradient>
        <linearGradient x1="-129.864381%" y1="394.357308%" x2="66.5775346%" y2="22.7326947%" id="linearGradient-17">
            <stop stop-color="#9E2064" offset="32.33%"/>
            <stop stop-color="#C92037" offset="63.020003%"/>
            <stop stop-color="#CD2335" offset="75.139999%"/>
            <stop stop-color="#E97826" offset="100%"/>
        </linearGradient>
        <linearGradient x1="57.5595044%" y1="67.3154978%" x2="72.3861893%" y2="59.7652446%" id="linearGradient-18">
            <stop stop-color="#9E2064" offset="32.33%"/>
            <stop stop-color="#C92037" offset="63.020003%"/>
            <stop stop-color="#CD2335" offset="75.139999%"/>
            <stop stop-color="#E97826" offset="100%"/>
        </linearGradient>
    </defs>
    <g id="maven" stroke="none" stroke-width="1" fill="none" fill-rule="evenodd">
        <g id="g7248" transform="translate(-5.000000, 2.000000)">
            <path d="M18.1593722,3.82515499 C17.5501781,4.18006459 16.5340035,5.17234537 15.3285551,6.61058268 L16.4324514,8.65212673 C17.2098049,7.5613417 18.0086483,6.58366758 18.8071913,5.74743984 C18.8652735,5.68366576 18.9015654,5.64822716 18.9015654,5.64822716 C18.8725168,5.68365036 18.8362399,5.71201664 18.8071913,5.74743984 C18.5458442,6.02381471 17.7616678,6.9165902 16.5772288,8.69425264 C17.7145585,8.63525623 19.460692,8.40523052 20.8881472,8.16173778 C21.3204316,5.84110838 20.4824528,4.78204691 20.4824528,4.78204691 C20.4824528,4.78204691 19.4140225,3.09404182 18.1593722,3.82515499 Z" id="path7258" fill="url(#linearGradient-1)" transform="translate(18.170286, 6.167886) rotate(-36.276674) translate(-18.170286, -6.167886) "/>
            <path d="M22.0997421,14.8874896 C22.0997421,14.8874896 22.0997421,14.8874896 22.0997421,14.8874896 L22.0997421,14.8874896 C22.0997421,14.8874896 22.0997421,14.8874896 22.0997421,14.8874896 C22.0997421,14.8874896 22.0997421,14.8874896 22.0997421,14.8874896 L22.0997421,14.8874896 Z" id="path7260" transform="translate(22.099742, 14.887490) rotate(-36.276674) translate(-22.099742, -14.887490) "/>
            <path d="M23.3053503,18.5632323 C23.3053503,18.5632323 23.3053503,18.5632323 23.3053503,18.5632323 C23.3053503,18.5632323 23.3053503,18.5632323 23.3053503,18.5632323 Z" id="path7262" transform="translate(23.305350, 18.563232) rotate(-36.276674) translate(-23.305350, -18.563232) "/>
            <path d="M18.7858197,29.386313 C18.8003665,29.3579929 18.807685,29.3226159 18.8222318,29.2942958 C19.069843,28.6643358 19.3101657,28.0556081 19.5504734,27.4539527 C19.8198898,26.7885849 20.0892762,26.1373617 20.3513741,25.5073708 C20.6280188,24.8490599 20.9046335,24.2048936 21.1739448,23.589032 C21.4578179,22.937778 21.7343875,22.3148287 22.0109121,21.7130963 C22.2364928,21.2246289 22.4548001,20.7503215 22.6730774,20.2901587 C22.7458415,20.1344137 22.8185906,19.9857409 22.8913397,19.8370682 C23.0368379,19.5397228 23.1750776,19.2494651 23.3133024,18.9662797 C23.4442387,18.7043267 23.5679167,18.4494614 23.6915946,18.1945961 C23.7352351,18.1096358 23.7788755,18.0246756 23.8152576,17.9468031 C23.822531,17.9326431 23.8298044,17.918483 23.8370778,17.904323 L23.6994236,17.9187602 L23.5912085,17.713894 C23.5839201,17.7351263 23.5693883,17.7563741 23.5620999,17.7776064 C23.3657329,18.1528552 23.1693509,18.5351762 22.9801973,18.9245542 C22.8710812,19.1440271 22.7619501,19.3705724 22.6455756,19.597133 C22.3400324,20.2201439 22.0417327,20.8431394 21.7506462,21.4802642 C21.4523164,22.1174044 21.161215,22.7616015 20.8773719,23.3987108 C20.5935439,24.0287479 20.3242026,24.6587541 20.0548613,25.2887603 C19.78552,25.9187666 19.5234371,26.5416851 19.2685976,27.1645882 C18.9992112,27.8158114 18.7370833,28.4599469 18.4894571,29.0969793 C18.4312098,29.2385489 18.3729474,29.3871908 18.3219435,29.528745 C18.1180328,30.0454555 17.9213955,30.548006 17.7320017,31.0505411 L17.9051368,31.3825705 L18.0572777,31.3681024 C18.0645511,31.3539424 18.0718245,31.3397824 18.0718546,31.3256377 C18.2978257,30.65329 18.5454669,30.0091853 18.7858197,29.386313 L18.7858197,29.386313 Z" id="path7264" transform="translate(20.784540, 24.548232) rotate(-36.276674) translate(-20.784540, -24.548232) "/>
            <g id="path7266" transform="translate(12.090494, 9.795495) rotate(-36.276674) translate(-12.090494, -9.795495) translate(-0.204025, 6.749659)"/>
            <path d="M23.7592962,20.535008 C23.7592962,20.535008 23.7592962,20.535008 23.7592962,20.535008 C23.7592962,20.535008 23.7592962,20.535008 23.7592962,20.535008 C23.7592962,20.535008 23.7592962,20.535008 23.7592962,20.535008 C23.7592962,20.535008 23.7592962,20.535008 23.7592962,20.535008 Z" id="path7268" fill="#BE202E" transform="translate(23.759296, 20.535008) rotate(-36.276674) translate(-23.759296, -20.535008) "/>
            <path d="M23.7592962,20.535008 C23.7592962,20.535008 23.7592962,20.535008 23.7592962,20.535008 C23.7592962,20.535008 23.7592962,20.535008 23.7592962,20.535008 C23.7592962,20.535008 23.7592962,20.535008 23.7592962,20.535008 C23.7592962,20.535008 23.7592962,20.535008 23.7592962,20.535008 Z" id="path7270" fill="#BE202E" opacity="0.35" transform="translate(23.759296, 20.535008) rotate(-36.276674) translate(-23.759296, -20.535008) "/>
            <path d="M23.2790139,18.5870413 C23.2790139,18.5870413 23.2790139,18.5870413 23.2790139,18.5870413 C23.2790139,18.5870413 23.2790139,18.5870413 23.2790139,18.5870413 C23.2790139,18.5870413 23.2790139,18.5870413 23.2790139,18.5870413 C23.2790139,18.5870413 23.2790139,18.5870413 23.2790139,18.5870413 C23.2790139,18.5870413 23.2790139,18.5870413 23.2790139,18.5870413 L23.2790139,18.5870413 L23.2790139,18.5870413 L23.2790139,18.5870413 Z" id="path7272" fill="#BE202E" transform="translate(23.279014, 18.587041) rotate(-36.276674) translate(-23.279014, -18.587041) "/>
            <path d="M23.2790139,18.5870413 C23.2790139,18.5870413 23.2790139,18.5870413 23.2790139,18.5870413 C23.2790139,18.5870413 23.2790139,18.5870413 23.2790139,18.5870413 C23.2790139,18.5870413 23.2790139,18.5870413 23.2790139,18.5870413 C23.2790139,18.5870413 23.2790139,18.5870413 23.2790139,18.5870413 C23.2790139,18.5870413 23.2790139,18.5870413 23.2790139,18.5870413 L23.2790139,18.5870413 L23.2790139,18.5870413 L23.2790139,18.5870413 Z" id="path7274" fill="#BE202E" opacity="0.35" transform="translate(23.279014, 18.587041) rotate(-36.276674) translate(-23.279014, -18.587041) "/>
            <path d="M16.9822305,15.6758607 C17.3239755,15.0598451 17.6656905,14.4579741 18.0073754,13.8702478 C18.3635921,13.2612737 18.7270072,12.6735012 19.0976356,12.0998579 C19.1194408,12.0644501 19.141246,12.0290423 19.1630362,12.0007068 C19.5263911,11.4412236 19.8897011,10.9029573 20.2602093,10.3858925 L19.156298,8.35142078 C19.0764107,8.45060265 18.9892799,8.54979993 18.9021342,8.65606953 C18.5825999,9.04572471 18.2485187,9.46369998 17.9071341,9.90997992 C17.5221692,10.4129308 17.1299007,10.9441864 16.7230855,11.5037621 C16.3525773,12.0208268 15.9747656,12.5661962 15.5969238,13.1257103 C15.2771943,13.6073056 14.9574497,14.0959733 14.6376751,14.5987856 C14.6231433,14.6200333 14.6158699,14.6341934 14.6013381,14.6554411 L16.0368679,17.431798 C16.3568227,16.8441178 16.6695341,16.2564531 16.9822305,15.6758607 L16.9822305,15.6758607 Z" id="path7286" fill="url(#linearGradient-2)" transform="translate(17.430774, 12.891609) rotate(-36.276674) translate(-17.430774, -12.891609) "/>
            <path d="M23.0481641,30.39018 C22.8587552,30.8997874 22.6620729,31.4235549 22.472604,31.9614516 C22.4725889,31.9685239 22.4653306,31.9756116 22.4653155,31.9826839 C22.4361769,32.060541 22.4070532,32.1313258 22.3851579,32.2091675 C22.2540113,32.570133 22.14467,32.8956907 21.8823468,33.6317664 C22.3093004,33.8218104 22.6486878,34.3161489 22.9661949,34.8812569 C22.9312244,34.2943314 22.686121,33.743214 22.2162027,33.3198759 C24.3093424,33.4073653 26.1212819,32.8872359 27.0516172,31.385933 C27.1315797,31.2513895 27.2115571,31.1097737 27.2843062,30.961101 C26.8558359,31.4853612 26.3338325,31.7127843 25.3416105,31.6583156 C25.3416105,31.6583156 25.3343671,31.658331 25.3343671,31.658331 C25.3343671,31.658331 25.3416105,31.6583156 25.3416105,31.6583156 C26.79888,31.0187114 27.5317672,30.4018641 28.1785748,29.3891518 C28.3311962,29.1483696 28.4838627,28.8863703 28.6365892,28.5960818 C27.3590375,29.8788821 25.8806235,30.2427121 24.3238838,29.9702027 L23.1574304,30.0999839 C23.1210033,30.1990734 23.0845912,30.2910905 23.0481641,30.39018 Z" id="path7298" fill="url(#linearGradient-3)" transform="translate(25.259468, 31.738669) rotate(-36.276674) translate(-25.259468, -31.738669) "/>
            <path d="M17.7204735,29.9021381 C17.975343,29.2650903 18.237471,28.6209548 18.499614,27.969747 C18.7544535,27.3468439 19.0165364,26.7239254 19.2858777,26.0939192 C19.555219,25.4639129 19.8318037,24.8338913 20.1083883,24.2038696 C20.3922464,23.5596879 20.6833328,22.9225632 20.9816626,22.285423 C21.272734,21.6553706 21.5782922,21.0252873 21.876592,20.4022918 C21.9857231,20.1757466 22.0948392,19.9562737 22.2112137,19.729713 C22.4003523,19.3474074 22.5967343,18.9650863 22.7931163,18.5827652 C22.8004047,18.5615329 22.8149365,18.5402851 22.8222249,18.5190528 L21.4011669,15.7497374 C21.3793617,15.7851452 21.3575415,15.8276253 21.3284929,15.8630485 C20.9941565,16.4012532 20.6525616,16.9465456 20.3254235,17.5059519 C19.991027,18.0724459 19.6638589,18.6459968 19.3439041,19.2336769 C19.0748481,19.7293091 18.8130355,20.2249258 18.5512079,20.7276149 C18.500294,20.8267352 18.4493652,20.9329278 18.3984513,21.0320481 C18.0856498,21.6621467 17.7946084,22.2780545 17.5398439,22.8655961 C17.2486975,23.5310101 16.9938279,24.1680579 16.7680069,24.7696824 C16.6222985,25.1660403 16.4838635,25.5482382 16.3599453,25.9162606 C16.2578773,26.2276583 16.1630377,26.5461128 16.0682132,26.8574951 C15.8493502,27.5934783 15.6667042,28.3293846 15.5130316,29.0652292 L16.9557747,31.8557153 C17.1451686,31.3531802 17.3490492,30.8506143 17.5457165,30.3339192 C17.6039638,30.1923496 17.6622111,30.05078 17.7204735,29.9021381 L17.7204735,29.9021381 Z" id="path7310" fill="url(#linearGradient-4)" transform="translate(19.167628, 23.802726) rotate(-36.276674) translate(-19.167628, -23.802726) "/>
            <path d="M24.0257101,29.3734047 C23.8427337,30.264902 23.7104609,31.1562914 23.6433784,32.0475423 C23.6433184,32.0758316 23.6359999,32.1112086 23.6359398,32.1394978 C23.1883524,31.4332207 21.9729373,30.7427207 21.9801656,30.7497776 C22.8467575,31.9785131 23.5033216,33.1935506 23.5949477,34.3885724 C23.1311766,34.4814982 22.494045,34.3484794 21.7630199,34.088359 C22.5293609,34.7727415 23.101182,34.9624775 23.3256214,35.0115063 C22.6229241,35.0554341 21.8903373,35.5308349 21.1503569,36.0769744 C22.2305356,35.6432682 23.1073441,35.4716691 23.7299739,35.6117911 C22.7318203,38.3508886 21.7330511,41.3799511 20.7338914,44.592894 C21.0382932,44.5073794 21.2198131,44.3018971 21.3217909,44.0329333 C21.4968632,43.4526335 22.6856421,39.6310708 24.5361057,34.6128846 C24.5871096,34.4713304 24.645357,34.3297608 24.6963759,34.1811343 C24.7109528,34.1386696 24.7255146,34.1032772 24.7400914,34.0608125 C24.9367738,33.537045 25.1407295,32.9991175 25.3519586,32.44703 C25.4029325,32.3196205 25.446648,32.1992986 25.4976219,32.0718891 C25.4976219,32.0718891 25.497637,32.0648167 25.497637,32.0648167 L24.0548939,29.2743306 C24.040332,29.309723 24.0330286,29.3380277 24.0257101,29.3734047 L24.0257101,29.3734047 Z" id="path7322" fill="url(#linearGradient-5)" transform="translate(23.115764, 36.933612) rotate(-36.276674) translate(-23.115764, -36.933612) "/>
            <path d="M22.9784165,16.2960299 C22.934776,16.3809902 22.898394,16.4588627 22.8547535,16.5438229 C22.7310756,16.7986882 22.6001543,17.0535689 22.4764613,17.3155066 C22.3382365,17.5986919 22.1999968,17.8889496 22.0544986,18.1862951 C21.9817495,18.3349678 21.9090004,18.4836405 21.8362363,18.6393855 C21.6179591,19.0995483 21.3996517,19.5738557 21.174071,20.0623232 C20.8975464,20.6640555 20.6209768,21.2870049 20.3371037,21.9382589 C20.0677924,22.5541205 19.7911777,23.1982868 19.514533,23.8565977 C19.2524351,24.4865885 18.9830637,25.1307394 18.7136323,25.8031796 C18.4733396,26.3977626 18.2330019,27.0135626 17.9853907,27.6435227 C17.9708439,27.6718427 17.9635254,27.7072197 17.9489786,27.7355398 C17.7086258,28.3584121 17.4609846,29.0025168 17.2133134,29.6607661 C17.20604,29.6749262 17.1987666,29.6890862 17.1987365,29.7032308 L18.3651899,29.5734496 C18.3434748,29.5664235 18.3217447,29.5664697 18.2927862,29.559459 C19.6911177,29.3867511 21.5475837,28.3643946 22.7454132,27.1029806 C23.297141,26.52188 23.7983753,25.8418747 24.2636481,25.041717 C24.6125914,24.446903 24.9326964,23.7884996 25.2457232,23.0523162 C25.5150795,22.4152376 25.7773125,21.7215959 26.025179,20.9714064 C25.7061252,21.1347474 25.3364579,21.2557623 24.9306488,21.3414925 C24.858185,21.3557912 24.7857212,21.3700898 24.7132575,21.3843884 C24.6407937,21.3986871 24.5683449,21.4059134 24.4886378,21.4202274 L24.4886378,21.4202274 L24.4886378,21.4202274 C24.4886378,21.4202274 24.4886378,21.4202274 24.4886378,21.4202274 C25.7934811,20.9294653 26.6139795,19.9871066 27.2103989,18.8259834 C26.8694798,19.0530214 26.3111094,19.3512447 25.6444037,19.5011802 C25.5574381,19.522582 25.4632443,19.5369268 25.3690504,19.5512717 C25.3473202,19.5513179 25.3255751,19.5584364 25.2966016,19.558498 L25.2966016,19.558498 L25.2966016,19.558498 C25.2966016,19.558498 25.2966016,19.558498 25.2966016,19.558498 C25.2966016,19.558498 25.2966016,19.558498 25.2966016,19.558498 L25.2966016,19.558498 C25.7460812,19.3736629 26.1304155,19.1677494 26.4641362,18.9195098 C26.5366751,18.8698495 26.6019856,18.8131324 26.6672961,18.7564152 C26.7688835,18.6713318 26.8632426,18.5791914 26.9576016,18.4870511 C27.0156838,18.423277 27.0737509,18.3665752 27.131833,18.3028012 C27.2625291,18.1540052 27.3860118,17.9910801 27.4950378,17.8140411 C27.5313748,17.7573855 27.5676968,17.7078023 27.5967904,17.6511621 C27.6404309,17.5662019 27.6840563,17.488314 27.7204383,17.4104415 C27.9022735,17.0564405 28.0478167,16.7378781 28.1643114,16.4547389 C28.2225587,16.3131693 28.2735326,16.1857598 28.3172481,16.065438 C28.33184,16.0159009 28.3536602,15.9734208 28.3682521,15.9238838 C28.4119976,15.7894173 28.4557131,15.6690955 28.4849119,15.5629491 C28.5287025,15.4072656 28.5579463,15.2799023 28.5726283,15.1879313 L28.5726283,15.1879313 L28.5726283,15.1879313 C28.5290929,15.2233853 28.4783142,15.2588547 28.4203072,15.2872672 C28.0286845,15.5144131 27.3546003,15.7280149 26.811137,15.8281824 L27.8833966,15.712746 L26.811137,15.8281824 C26.8038937,15.8281978 26.7966503,15.8282132 26.7893919,15.8353009 C26.7386733,15.842481 26.6807113,15.8496765 26.6227342,15.8639444 C26.6299926,15.8568567 26.6444794,15.8568259 26.6517378,15.8497381 L22.9857649,16.2465083 C22.9929482,16.2747822 22.9856748,16.2889422 22.9784165,16.2960299 L22.9784165,16.2960299 Z" id="path7334" fill="url(#linearGradient-6)" transform="translate(22.885682, 22.445581) rotate(-36.276674) translate(-22.885682, -22.445581) "/>
            <path d="M20.3382469,8.44649562 C20.011259,8.93517868 19.6551474,9.49464653 19.2699271,10.1178269 C19.2481219,10.1532347 19.2263317,10.1815701 19.2117699,10.2169625 C18.8774184,10.7622396 18.5284751,11.3570536 18.1576665,12.0155647 C17.8377568,12.5820279 17.5032852,13.1838835 17.1542067,13.8423484 C16.8487837,14.4087808 16.5432856,15.0105747 16.2159823,15.6477765 L19.8819551,15.2510063 C20.9477522,14.7678248 21.4267308,14.3353969 21.8916432,13.7049748 C22.0151409,13.5349773 22.1386687,13.3508352 22.2622115,13.1596208 C22.6400833,12.5859621 23.0108318,11.9557402 23.3381201,11.3256108 C23.6581199,10.7167137 23.9418879,10.1149659 24.153087,9.57702305 C24.2914469,9.23018679 24.4007733,8.91170141 24.481051,8.62863923 C24.546767,8.38096944 24.5979661,8.1474751 24.6419069,7.92106847 C23.2217102,8.15747349 21.4755767,8.3874992 20.3382469,8.44649562 Z" id="path7346" fill="url(#linearGradient-7)" transform="translate(20.428945, 11.784422) rotate(-36.276674) translate(-20.428945, -11.784422) "/>
            <path d="M23.6893609,20.6173184 C23.6893609,20.6173184 23.6893609,20.6173184 23.6893609,20.6173184 L23.6893609,20.6173184 C23.6893609,20.6173184 23.6893609,20.6173184 23.6893609,20.6173184 Z" id="path7348" fill="#BE202E" transform="translate(23.689361, 20.617318) rotate(-36.276674) translate(-23.689361, -20.617318) "/>
            <path d="M23.6893609,20.6173184 C23.6893609,20.6173184 23.6893609,20.6173184 23.6893609,20.6173184 L23.6893609,20.6173184 C23.6893609,20.6173184 23.6893609,20.6173184 23.6893609,20.6173184 Z" id="path7350" fill="#BE202E" opacity="0.35" transform="translate(23.689361, 20.617318) rotate(-36.276674) translate(-23.689361, -20.617318) "/>
            <path d="M23.6893609,20.6173184 C23.6893609,20.6173184 23.6893609,20.6173184 23.6893609,20.6173184 L23.6893609,20.6173184 C23.6893609,20.6173184 23.6893609,20.6173184 23.6893609,20.6173184 Z" id="path7362" fill="url(#linearGradient-8)" transform="translate(23.689361, 20.617318) rotate(-36.276674) translate(-23.689361, -20.617318) "/>
            <path d="M23.2069825,18.670897 C23.2069825,18.670897 23.2069825,18.670897 23.2069825,18.670897 C23.2069825,18.670897 23.2069825,18.670897 23.2069825,18.670897 L23.2069825,18.670897 Z" id="path7364" fill="#BE202E" transform="translate(23.206982, 18.670897) rotate(-36.276674) translate(-23.206982, -18.670897) "/>
            <path d="M23.2069825,18.670897 C23.2069825,18.670897 23.2069825,18.670897 23.2069825,18.670897 C23.2069825,18.670897 23.2069825,18.670897 23.2069825,18.670897 L23.2069825,18.670897 Z" id="path7366" fill="#BE202E" opacity="0.35" transform="translate(23.206982, 18.670897) rotate(-36.276674) translate(-23.206982, -18.670897) "/>
            <path d="M23.2069825,18.670897 C23.2069825,18.670897 23.2069825,18.670897 23.2069825,18.670897 C23.2069825,18.670897 23.2069825,18.670897 23.2069825,18.670897 L23.2069825,18.670897 Z" id="path7378" fill="url(#linearGradient-9)" transform="translate(23.206982, 18.670897) rotate(-36.276674) translate(-23.206982, -18.670897) "/>
            <g id="path7380" transform="translate(12.090494, 9.795495) rotate(-36.276674) translate(-12.090494, -9.795495) translate(-0.204025, 6.749659)"/>
            <g id="path7382" opacity="0.35" transform="translate(12.090494, 9.795495) rotate(-36.276674) translate(-12.090494, -9.795495) translate(-0.204025, 6.749659)"/>
            <g id="path7394" transform="translate(12.090494, 9.795495) rotate(-36.276674) translate(-12.090494, -9.795495) translate(-0.204025, 6.749659)"/>
        </g>
        <g id="g4701" transform="translate(14.000000, 1.000000)">
            <path d="M25.2020039,5.16191604 C24.4931356,5.5712768 23.311264,6.71675533 21.9096246,8.37741485 L23.1979294,10.7386131 C24.1015692,9.47894789 25.0303925,8.35004852 25.9590659,7.38463524 C26.0266089,7.31100502 26.0688186,7.27009507 26.0688186,7.27009507 C26.0350434,7.31099733 25.9928412,7.34373297 25.9590659,7.38463524 C25.6551336,7.70370977 24.7432691,8.73450212 23.3665734,10.7875052 C24.6908415,10.7209042 26.7237831,10.4574744 28.3856239,10.1780341 C28.8857141,7.49640883 27.9084423,6.2711546 27.9084423,6.2711546 C27.9084423,6.2711546 26.661935,4.31863317 25.2020039,5.16191604 Z" id="path4710" fill="url(#linearGradient-11)" transform="translate(25.218849, 7.869037) rotate(8.347377) translate(-25.218849, -7.869037) "/>
            <path d="M21.368712,18.220877 C21.368712,18.220877 21.368712,18.220877 21.368712,18.220877 L21.368712,18.220877 C21.368712,18.220877 21.368712,18.220877 21.368712,18.220877 C21.368712,18.220877 21.368712,18.220877 21.368712,18.220877 L21.368712,18.220877 Z" id="path4712" transform="translate(21.368712, 18.220877) rotate(8.347377) translate(-21.368712, -18.220877) "/>
            <path d="M19.3712455,22.2210932 C19.3712455,22.2210932 19.3712455,22.2210932 19.3712455,22.2210932 C19.3712455,22.2210932 19.3712455,22.2210932 19.3712455,22.2210932 Z" id="path4714" transform="translate(19.371246, 22.221093) rotate(8.347377) translate(-19.371246, -22.221093) "/>
            <path d="M10.0746953,30.6818035 C10.0915942,30.6490909 10.1000661,30.6082117 10.116965,30.5754991 C10.4044031,29.8477247 10.6833843,29.1444809 10.962358,28.4494114 C11.2751369,27.6807424 11.5879008,26.9284221 11.8922078,26.2006323 C12.2134137,25.4401299 12.5346046,24.6959762 12.8473311,23.9845274 C13.1769639,23.2321916 13.4981323,22.5125608 13.8192783,21.8174529 C14.0812632,21.2531876 14.3347987,20.7052787 14.5883191,20.1737183 C14.6728285,19.9938068 14.7573303,19.8220695 14.8418321,19.6503323 C15.0108358,19.3068578 15.1713975,18.9715653 15.3319518,18.6444471 C15.4840491,18.3418595 15.6277044,18.0474539 15.7713598,17.7530483 C15.8220564,17.6549105 15.872753,17.5567728 15.9150077,17.466817 C15.9234571,17.4504607 15.9319065,17.4341044 15.940356,17.4177481 L15.7800865,17.4342427 L15.6537871,17.1973032 C15.6453302,17.2218338 15.6284388,17.2463721 15.6199819,17.2709027 C15.3918546,17.7043483 15.1637199,18.1459682 14.9440121,18.5957548 C14.8172631,18.8492735 14.6905067,19.1109665 14.5553157,19.3726672 C14.2004095,20.0923288 13.8539378,20.8119827 13.5158855,21.5479775 C13.1693987,22.28398 12.8313389,23.0281491 12.5017211,23.7641362 C12.1721107,24.491949 11.8593693,25.2197465 11.5466278,25.9475439 C11.2338864,26.6753414 10.9295868,27.3949568 10.6337218,28.1145646 C10.3209578,28.866885 10.0166358,29.6110234 9.72919021,30.3469721 C9.66156477,30.5105196 9.59393183,30.6822415 9.53474083,30.8457814 C9.29802929,31.4427208 9.06976719,32.0233039 8.84993953,32.6038794 L9.05201407,32.9878872 L9.22915244,32.9713772 C9.23760188,32.9550209 9.24605131,32.9386647 9.2460663,32.922316 C9.50824604,32.1455189 9.79569914,31.4013959 10.0746953,30.6818035 L10.0746953,30.6818035 Z" id="path4716" transform="translate(12.395148, 25.092595) rotate(8.347377) translate(-12.395148, -25.092595) "/>
            <g id="path4718" transform="translate(17.211595, 5.898845) rotate(8.347377) translate(-17.211595, -5.898845) translate(2.871118, 2.384367)"/>
            <path d="M18.1397077,24.2099758 C18.1397077,24.2099758 18.1397077,24.2099758 18.1397077,24.2099758 C18.1397077,24.2099758 18.1397077,24.2099758 18.1397077,24.2099758 C18.1397077,24.2099758 18.1397077,24.2099758 18.1397077,24.2099758 C18.1397077,24.2099758 18.1397077,24.2099758 18.1397077,24.2099758 Z" id="path4720" fill="#BE202E" transform="translate(18.139708, 24.209976) rotate(8.347377) translate(-18.139708, -24.209976) "/>
            <path d="M18.1397077,24.2099758 C18.1397077,24.2099758 18.1397077,24.2099758 18.1397077,24.2099758 C18.1397077,24.2099758 18.1397077,24.2099758 18.1397077,24.2099758 C18.1397077,24.2099758 18.1397077,24.2099758 18.1397077,24.2099758 C18.1397077,24.2099758 18.1397077,24.2099758 18.1397077,24.2099758 Z" id="path4722" fill="#BE202E" opacity="0.35" transform="translate(18.139708, 24.209976) rotate(8.347377) translate(-18.139708, -24.209976) "/>
            <path d="M19.3299607,22.2192043 C19.3299607,22.2192043 19.3299607,22.2192043 19.3299607,22.2192043 C19.3299607,22.2192043 19.3299607,22.2192043 19.3299607,22.2192043 C19.3299607,22.2192043 19.3299607,22.2192043 19.3299607,22.2192043 C19.3299607,22.2192043 19.3299607,22.2192043 19.3299607,22.2192043 C19.3299607,22.2192043 19.3299607,22.2192043 19.3299607,22.2192043 L19.3299607,22.2192043 L19.3299607,22.2192043 L19.3299607,22.2192043 Z" id="path4724" fill="#BE202E" transform="translate(19.329961, 22.219204) rotate(8.347377) translate(-19.329961, -22.219204) "/>
            <path d="M19.3299607,22.2192043 C19.3299607,22.2192043 19.3299607,22.2192043 19.3299607,22.2192043 C19.3299607,22.2192043 19.3299607,22.2192043 19.3299607,22.2192043 C19.3299607,22.2192043 19.3299607,22.2192043 19.3299607,22.2192043 C19.3299607,22.2192043 19.3299607,22.2192043 19.3299607,22.2192043 C19.3299607,22.2192043 19.3299607,22.2192043 19.3299607,22.2192043 L19.3299607,22.2192043 L19.3299607,22.2192043 L19.3299607,22.2192043 Z" id="path4726" fill="#BE202E" opacity="0.35" transform="translate(19.329961, 22.219204) rotate(8.347377) translate(-19.329961, -22.219204) "/>
            <path d="M18.6010287,16.006684 C18.9980997,15.2951583 19.3951556,14.5999812 19.7921966,13.9211528 C20.2061289,13.217786 20.6284733,12.5389345 21.059237,11.8764239 C21.0845778,11.8355293 21.1099186,11.7946347 21.135252,11.7619144 C21.5575663,11.1157601 21.9798582,10.4941287 22.410562,9.89701258 L21.1222497,7.54398866 C21.0293658,7.65851346 20.9280476,7.77304594 20.8267218,7.89575273 C20.455194,8.34567762 20.0667673,8.82831509 19.6698762,9.34365747 C19.2223185,9.9244404 18.7662963,10.5379282 18.2933753,11.1841286 C17.8626715,11.7812448 17.4235032,12.4110659 16.98432,13.0572356 C16.6126948,13.6134264 16.2410621,14.1777916 15.8694144,14.7585053 C15.852523,14.7830436 15.8440735,14.7993999 15.8271822,14.8239382 L17.5026922,18.0349106 C17.8744299,17.3561052 18.237733,16.6773074 18.6010287,16.006684 L18.6010287,16.006684 Z" id="path4737" fill="url(#linearGradient-12)" transform="translate(19.118872, 12.789450) rotate(8.347377) translate(-19.118872, -12.789450) "/>
            <path d="M7.66797536,33.079173 C7.4481402,33.6679227 7.21985562,34.2730287 6.99999049,34.8944757 C6.999983,34.90265 6.99154106,34.910832 6.99153356,34.9190063 C6.95771335,35.0089544 6.92390063,35.0907282 6.89851486,35.1806686 C6.74631264,35.5976964 6.61945124,35.9738297 6.31503183,36.8242341 C6.81246188,37.0444869 7.20835636,37.616327 7.57887256,38.2699332 C7.53732228,37.5915044 7.25113556,36.9541699 6.7033461,36.4642112 C9.14080391,36.5682562 11.2499627,35.9696107 12.3311606,34.2356745 C12.4240819,34.0802781 12.5170106,33.9167075 12.6015125,33.7449703 C12.1033256,34.3503222 11.4958056,34.6124533 10.3403463,34.5481117 C10.3403463,34.5481117 10.3319118,34.5481194 10.3319118,34.5481194 C10.3319118,34.5481194 10.3403463,34.5481117 10.3403463,34.5481117 C12.0363446,33.8108796 12.8888757,33.0989389 13.640613,31.9293294 C13.8179912,31.6512417 13.9953918,31.348631 14.1728224,31.0133232 C12.6870034,32.4942248 10.9659941,32.9126821 9.15288016,32.5955365 L7.79479929,32.7439112 C7.75252215,32.8583899 7.7102525,32.9646943 7.66797536,33.079173 Z" id="path4748" fill="url(#linearGradient-13)" transform="translate(10.243927, 34.641628) rotate(8.347377) translate(-10.243927, -34.641628) "/>
            <path d="M9.98453096,30.2118057 C10.280411,29.4758494 10.584733,28.731711 10.8890625,27.9793983 C11.1849276,27.2597905 11.4892271,26.5401751 11.8019686,25.8123776 C12.11471,25.0845802 12.4358859,24.356775 12.7570618,23.6289699 C13.0866872,22.8848085 13.4247395,22.1488137 13.7712262,21.4128112 C14.109271,20.6849907 14.4641847,19.9571548 14.8106565,19.2375009 C14.9374129,18.9758079 15.064162,18.7222892 15.1993529,18.4605885 C15.4190532,18.0189762 15.6471879,17.5773563 15.8753226,17.1357363 C15.8837795,17.1112057 15.9006709,17.0866675 15.9091278,17.0621369 L14.2504792,13.8593234 C14.2251384,13.900218 14.1997901,13.9492868 14.1660148,13.9901891 C13.7774607,14.6117898 13.3804647,15.2415724 13.0003226,15.8876883 C12.6117386,16.5419862 12.2315815,17.2044507 11.8598439,17.8832561 C11.5472448,18.4557417 11.2430801,19.0282197 10.938908,19.608872 C10.879762,19.7233661 10.8206084,19.8460344 10.7614624,19.9605285 C10.3981143,20.688372 10.0600844,21.3998439 9.76425684,22.0785802 C9.42617458,22.8472722 9.13029452,23.5832286 8.86818972,24.2782827 C8.69908114,24.7361975 8.538422,25.1777559 8.39464674,25.6029504 C8.27623477,25.9627274 8.16624975,26.330671 8.05627223,26.6904403 C7.8024595,27.5407985 7.59081901,28.3911183 7.4129163,29.2414074 L9.09684582,32.4687207 C9.31667348,31.8881453 9.55337004,31.3075545 9.78164713,30.7106228 C9.84927257,30.5470752 9.91689802,30.3835276 9.98453096,30.2118057 L9.98453096,30.2118057 Z" id="path4759" fill="url(#linearGradient-14)" transform="translate(11.661022, 23.164022) rotate(8.347377) translate(-11.661022, -23.164022) "/>
            <path d="M5.27673721,28.4253355 C5.06493186,29.45549 4.91216764,30.4855907 4.83531345,31.5156223 C4.83528347,31.5483195 4.82681156,31.5891987 4.82678159,31.6218959 C4.30459521,30.8049419 2.88834244,30.0051512 2.8967694,30.0133178 C3.9075992,31.4347246 4.67384502,32.8400056 4.78222644,34.2213632 C4.24232441,34.328121 3.50023544,34.1734855 2.64863353,33.8718124 C3.54195807,34.6639053 4.20807707,34.8840045 4.46949248,34.9409864 C3.65130614,34.9907776 2.79892492,35.5392322 1.93803432,36.1694375 C3.19522404,35.6696599 4.21597199,35.4725467 4.94118458,35.6353719 C3.78276536,38.7998806 2.62403892,42.2995358 1.46511765,46.0117229 C1.81945435,45.9133085 2.03053283,45.6760615 2.14889984,45.3653304 C2.35194104,44.6948529 3.73080237,40.2794758 5.87846478,34.4819419 C5.93765578,34.318402 6.00528122,34.1548545 6.06447972,33.9831403 C6.08139357,33.9340791 6.09829993,33.8931922 6.11521379,33.844131 C6.34349837,33.239025 6.58023239,32.6175626 6.82541585,31.979744 C6.88459186,31.8325527 6.93532593,31.6935434 6.99450194,31.5463522 C6.99450194,31.5463522 6.99450944,31.5381779 6.99450944,31.5381779 L5.31057991,28.3108645 C5.29367355,28.3517514 5.28520913,28.3844563 5.27673721,28.4253355 L5.27673721,28.4253355 Z" id="path4770" fill="url(#linearGradient-15)" transform="translate(4.229814, 37.161294) rotate(8.347377) translate(-4.229814, -37.161294) "/>
            <path d="M15.9539905,17.9688845 C15.9032939,18.0670223 15.8610393,18.1569781 15.8103427,18.2551159 C15.6666873,18.5495215 15.5145975,18.8439348 15.3709346,19.1465147 C15.2103804,19.4736329 15.0498187,19.8089254 14.880815,20.1523999 C14.7963132,20.3241371 14.7118113,20.4958743 14.627302,20.6757859 C14.3737815,21.2073462 14.120246,21.7552552 13.8582611,22.3195204 C13.5371152,23.0146284 13.2159468,23.7342592 12.886314,24.4865949 C12.5735875,25.1980438 12.2523966,25.9421975 11.9311907,26.7026999 C11.6268837,27.4304896 11.3141273,28.1746357 11.0013408,28.951479 C10.7223746,29.6383741 10.443386,30.3497922 10.1559478,31.0775666 C10.139049,31.1102792 10.1305771,31.1511584 10.1136782,31.183871 C9.83468201,31.9034634 9.5472289,32.6475864 9.25976081,33.408058 C9.25131138,33.4244143 9.24286194,33.4407706 9.24284696,33.4571192 L10.6009278,33.3087445 C10.575632,33.3005932 10.5503286,33.3006163 10.5165983,33.2924727 C12.1446265,33.0948062 14.304924,31.915739 15.6979416,30.4594448 C16.3395741,29.7885678 16.9222703,29.0033043 17.4629216,28.079116 C17.8684046,27.3921056 18.2402171,26.6315571 18.6036777,25.781099 C18.9164266,25.0451272 19.2208011,24.2437687 19.5083666,23.3770311 C19.1370786,23.5653783 18.7067944,23.7047334 18.2343754,23.8032554 C18.1500159,23.8196809 18.0656565,23.8361063 17.981297,23.8525318 C17.8969376,23.8689572 17.8125856,23.8772084 17.7197917,23.8936415 L17.7197917,23.8936415 L17.7197917,23.8936415 C17.7197917,23.8936415 17.7197917,23.8936415 17.7197917,23.8936415 C19.2385092,23.3282312 20.1925984,22.2401803 20.885452,20.8989642 C20.4887932,21.1609032 19.839026,21.5048157 19.0628995,21.6771831 C18.9616637,21.7017982 18.8520009,21.7182467 18.7423381,21.7346953 C18.7170347,21.7347183 18.6917239,21.7429157 18.6579861,21.7429464 L18.6579861,21.7429464 L18.6579861,21.7429464 C18.6579861,21.7429464 18.6579861,21.7429464 18.6579861,21.7429464 C18.6579861,21.7429464 18.6579861,21.7429464 18.6579861,21.7429464 L18.6579861,21.7429464 C19.1811167,21.529938 19.6283597,21.2924759 20.0166065,21.0060217 C20.1010034,20.9487247 20.1769734,20.8832611 20.2529434,20.8177975 C20.3711155,20.7195983 20.4808608,20.6132324 20.590606,20.5068666 C20.658149,20.4332363 20.7256845,20.3677804 20.7932276,20.2941502 C20.945205,20.1223515 21.0887629,19.9342118 21.215467,19.7297389 C21.2576991,19.6643061 21.2999238,19.6070475 21.3337216,19.5416224 C21.3844182,19.4434846 21.4351073,19.3535211 21.477362,19.2635654 C21.6885978,18.854658 21.8576239,18.4866606 21.9928748,18.1595655 C22.0605003,17.9960179 22.1196763,17.8488266 22.1704104,17.7098173 C22.1873317,17.6525818 22.21268,17.6035129 22.2296014,17.5462774 C22.2803504,17.3909195 22.3310845,17.2519103 22.3649347,17.1292649 C22.4157062,16.9493841 22.4495789,16.8022159 22.4665452,16.6959346 L22.4665452,16.6959346 L22.4665452,16.6959346 C22.4159011,16.7368522 22.3568225,16.7777775 22.2893169,16.8105362 C21.833617,17.072529 21.0489886,17.3184728 20.4163001,17.4334894 L21.6647182,17.3015632 L20.4163001,17.4334894 C20.4078657,17.4334971 20.3994312,17.4335048 20.3909893,17.4416868 C20.3319407,17.4499149 20.2644576,17.4581507 20.196967,17.4745608 C20.205409,17.4663788 20.2222779,17.4663634 20.2307198,17.4581814 L15.9624774,17.9116567 C15.9708819,17.9443463 15.9624325,17.9607026 15.9539905,17.9688845 L15.9539905,17.9688845 Z" id="path4781" fill="url(#linearGradient-16)" transform="translate(15.854696, 25.076527) rotate(8.347377) translate(-15.854696, -25.076527) "/>
            <path d="M22.4012335,10.462828 C22.0211663,11.0272008 21.6072864,11.6733475 21.1596013,12.3930936 C21.1342605,12.4339881 21.1089272,12.4667084 21.0920208,12.5075953 C20.7034593,13.1373703 20.2979763,13.8243807 19.8671227,14.584983 C19.4954075,15.2392655 19.106786,15.9344349 18.7012356,16.6950141 C18.3463894,17.3492812 17.9915057,18.0444199 17.6112811,18.7804531 L21.8795235,18.3269778 C23.1198968,17.7699954 23.6770274,17.2708556 24.217499,16.5428507 C24.3610644,16.3465367 24.5046448,16.1338742 24.6482328,15.9130373 C25.087431,15.250519 25.5182547,14.522614 25.8984717,13.794755 C26.2702318,13.0914267 26.5998122,12.3963111 26.8449807,11.7748411 C27.0056024,11.3741542 27.1324563,11.0061952 27.2255349,10.6791385 C27.3017072,10.3929686 27.3609956,10.1231628 27.4118421,9.86153893 C25.7584432,10.1327972 23.7255016,10.396227 22.4012335,10.462828 Z" id="path4792" fill="url(#linearGradient-17)" transform="translate(22.511562, 14.320996) rotate(8.347377) translate(-22.511562, -14.320996) "/>
            <path d="M18.0145083,24.2206345 C18.0145083,24.2206345 18.0145083,24.2206345 18.0145083,24.2206345 L18.0145083,24.2206345 C18.0145083,24.2206345 18.0145083,24.2206345 18.0145083,24.2206345 Z" id="path4794" fill="#BE202E" transform="translate(18.014508, 24.220634) rotate(8.347377) translate(-18.014508, -24.220634) "/>
            <path d="M18.0145083,24.2206345 C18.0145083,24.2206345 18.0145083,24.2206345 18.0145083,24.2206345 L18.0145083,24.2206345 C18.0145083,24.2206345 18.0145083,24.2206345 18.0145083,24.2206345 Z" id="path4796" fill="#BE202E" opacity="0.35" transform="translate(18.014508, 24.220634) rotate(8.347377) translate(-18.014508, -24.220634) "/>
            <path d="M18.0145083,24.2206345 C18.0145083,24.2206345 18.0145083,24.2206345 18.0145083,24.2206345 L18.0145083,24.2206345 C18.0145083,24.2206345 18.0145083,24.2206345 18.0145083,24.2206345 Z" id="path4807" fill="url(#linearGradient-8)" transform="translate(18.014508, 24.220634) rotate(8.347377) translate(-18.014508, -24.220634) "/>
            <path d="M19.1927995,22.228119 C19.1927995,22.228119 19.1927995,22.228119 19.1927995,22.228119 C19.1927995,22.228119 19.1927995,22.228119 19.1927995,22.228119 L19.1927995,22.228119 Z" id="path4809" fill="#BE202E" transform="translate(19.192800, 22.228119) rotate(8.347377) translate(-19.192800, -22.228119) "/>
            <path d="M19.1927995,22.228119 C19.1927995,22.228119 19.1927995,22.228119 19.1927995,22.228119 C19.1927995,22.228119 19.1927995,22.228119 19.1927995,22.228119 L19.1927995,22.228119 Z" id="path4811" fill="#BE202E" opacity="0.35" transform="translate(19.192800, 22.228119) rotate(8.347377) translate(-19.192800, -22.228119) "/>
            <path d="M19.1927995,22.228119 C19.1927995,22.228119 19.1927995,22.228119 19.1927995,22.228119 C19.1927995,22.228119 19.1927995,22.228119 19.1927995,22.228119 L19.1927995,22.228119 Z" id="path4822" fill="url(#linearGradient-9)" transform="translate(19.192800, 22.228119) rotate(8.347377) translate(-19.192800, -22.228119) "/>
            <g id="path4824" transform="translate(17.211595, 5.898845) rotate(8.347377) translate(-17.211595, -5.898845) translate(2.871118, 2.384367)"/>
            <g id="path4826" opacity="0.35" transform="translate(17.211595, 5.898845) rotate(8.347377) translate(-17.211595, -5.898845) translate(2.871118, 2.384367)"/>
            <g id="path4837" transform="translate(17.211595, 5.898845) rotate(8.347377) translate(-17.211595, -5.898845) translate(2.871118, 2.384367)"/>
        </g>
    </g>
</svg>